<svg preserveAspectRatio="none" width="100%" height="100%" overflow="visible" style="display: block;" viewBox="0 0 1592.42 1004.6" fill="none" xmlns="http://www.w3.org/2000/svg">
<g id="Camada 1">
<path id="Vector" d="M1260.56 5.99549e-05C1064.37 5.99549e-05 894.125 113.072 811.499 277.449C778.156 343.735 760.017 416.623 758.404 490.805C754.944 644.305 631.472 775.651 478.111 782.612H477.912C463.639 782.612 449.386 781.528 435.277 779.37C432.453 778.933 429.669 778.376 426.885 777.859C425.095 777.541 423.286 777.262 421.516 776.904C373.409 766.975 328.762 744.562 292.058 711.917C291.223 711.161 290.348 710.465 289.513 709.71C288.36 708.656 287.246 707.522 286.093 706.448C255.006 677.253 230.967 641.368 215.796 601.51C199.191 557.761 158.126 528.211 111.395 528.211C34.3563 528.211 -19.8527 604.97 6.93363 677.176C36.8233 756.953 86.4158 827.867 151.093 883.316C215.769 938.764 293.427 976.944 376.832 994.298C379.497 994.834 382.181 995.332 384.787 995.829C386.218 996.107 387.63 996.405 389.042 996.644C418.358 1001.92 448.085 1004.58 477.873 1004.6C710.956 1004.6 907.409 844.974 963.845 629.291C963.985 628.754 964.144 628.237 964.283 627.7C964.422 627.163 964.442 626.984 964.541 626.626C974.391 588.076 979.605 548.488 980.072 508.703C982.061 353.95 1102.19 223.916 1256.96 222.007C1297.39 221.5 1337.44 229.772 1374.35 246.252C1411.27 262.732 1444.17 287.027 1470.78 317.459C1497.01 245.534 1538.51 180.142 1592.42 125.779C1500.9 44.687 1382.84 -0.0597872 1260.56 5.99549e-05Z" fill="var(--fill-0, #000528)"/>
</g>
</svg>
