<svg preserveAspectRatio="none" width="100%" height="100%" overflow="visible" style="display: block;" viewBox="0 0 27.9525 15.7354" fill="none" xmlns="http://www.w3.org/2000/svg">
<g id="Group">
<path id="Vector" d="M27.89 15.2851L22.6581 9.66994C22.5637 9.56864 22.3772 9.50518 22.1738 9.50521C21.9704 9.50521 21.7839 9.56867 21.6895 9.67L20.151 11.322L14.5222 5.28037V3.25158H18.1609V4.47952C18.1609 4.64935 18.4057 4.78704 18.7076 4.78704H24.4703C24.674 4.78704 24.8609 4.72333 24.955 4.62169C25.0492 4.52006 25.0351 4.3974 24.9185 4.30345L23.5 3.16085L24.9184 2.01908C25.0351 1.92513 25.0493 1.80244 24.9551 1.70081C24.8609 1.59917 24.674 1.53543 24.4703 1.53543H20.4454C20.4171 1.53543 20.3895 1.53703 20.3623 1.53937V0.307517C20.3623 0.137685 20.1175 0 19.8156 0H13.9755C13.6736 0 13.4288 0.137654 13.4288 0.307517V5.28037L7.80113 11.3217L6.26294 9.67C6.16858 9.56867 5.98205 9.50521 5.77869 9.50521C5.57539 9.50521 5.3888 9.56864 5.29439 9.66994L0.062473 15.2851C-0.0263119 15.3805 -0.0201379 15.495 0.0789187 15.5871C0.177975 15.6792 0.355381 15.7354 0.54672 15.7354H27.4058C27.5971 15.7354 27.7745 15.6792 27.8735 15.5871C27.9726 15.495 27.9788 15.3805 27.89 15.2851ZM13.9755 6.01855L16.0968 8.2953C15.5887 8.30025 15.0837 8.40351 14.6885 8.60558C14.3025 8.80237 13.6493 8.80224 13.2632 8.60589C12.8729 8.40628 12.3628 8.30458 11.8501 8.30028L13.9755 6.01855ZM20.3623 2.94409V2.14656C20.3894 2.1489 20.4171 2.1505 20.4454 2.1505H23.4213L22.385 2.98469C22.2536 3.09044 22.2535 3.23111 22.3849 3.33692L23.4217 4.17207H19.2543V3.25158H19.8156C20.1175 3.25158 20.3623 3.11392 20.3623 2.94409ZM14.5222 0.615003H19.2688V2.63657H14.5222V0.615003ZM5.77853 10.4753L7.18384 11.9843L4.26252 15.1204H1.45047L5.77853 10.4753ZM5.49698 15.1204L11.1692 9.03121C11.5598 8.86463 12.1627 8.87447 12.5287 9.06157C12.9347 9.2681 13.4553 9.37133 13.9759 9.37133C14.4968 9.37133 15.0177 9.26788 15.4234 9.06105C15.7877 8.87471 16.39 8.86479 16.7817 9.03059L22.4554 15.1204H5.49698ZM23.6899 15.1204L20.7684 11.9846L22.174 10.4753L26.502 15.1204H23.6899Z" fill="var(--fill-0, white)"/>
</g>
</svg>
