<svg preserveAspectRatio="none" width="100%" height="100%" overflow="visible" style="display: block;" viewBox="0 0 1550.32 978.039" fill="none" xmlns="http://www.w3.org/2000/svg">
<g id="Camada 1">
<path id="Vector" d="M1227.24 5.83698e-05C1036.23 5.83698e-05 870.486 110.082 790.045 270.114C757.583 334.647 739.923 405.608 738.353 477.829C734.984 627.271 614.777 755.145 465.471 761.921H465.277C451.381 761.921 437.505 760.866 423.769 758.765C421.02 758.339 418.309 757.797 415.599 757.294C413.857 756.984 412.095 756.713 410.372 756.365C363.537 746.698 320.07 724.878 284.337 693.095C283.524 692.36 282.672 691.682 281.859 690.946C280.736 689.92 279.652 688.817 278.529 687.771C248.264 659.347 224.861 624.411 210.091 585.608C193.925 543.015 153.946 514.246 108.449 514.246C33.448 514.246 -19.3279 588.976 6.75032 659.273C35.8498 736.94 84.1312 805.98 147.098 859.963C210.065 913.945 285.669 951.115 366.869 968.01C369.464 968.533 372.077 969.017 374.614 969.501C376.007 969.772 377.382 970.062 378.757 970.295C407.298 975.431 436.239 978.023 465.239 978.039C692.16 978.039 883.419 822.635 938.363 612.654C938.499 612.131 938.654 611.628 938.789 611.105C938.925 610.582 938.944 610.408 939.041 610.059C948.63 572.529 953.706 533.987 954.161 495.253C956.097 344.592 1073.05 217.996 1223.73 216.137C1263.09 215.644 1302.08 223.698 1338.02 239.742C1373.96 255.786 1405.99 279.438 1431.89 309.066C1457.43 239.042 1497.84 175.379 1550.32 122.453C1461.22 43.5055 1346.28 -0.0582065 1227.24 5.83698e-05Z" fill="var(--fill-0, #000528)"/>
</g>
</svg>
