<svg preserveAspectRatio="none" width="100%" height="100%" overflow="visible" style="display: block;" viewBox="0 0 15.2754 15.2754" fill="none" xmlns="http://www.w3.org/2000/svg">
<g id="Icon">
<path id="Vector" d="M10.1835 13.3655V12.0925C10.1835 11.4173 9.91529 10.7697 9.43784 10.2923C8.96039 9.81485 8.31283 9.54662 7.63761 9.54662H3.81876C3.14354 9.54662 2.49598 9.81485 2.01853 10.2923C1.54108 10.7697 1.27285 11.4173 1.27285 12.0925V13.3655" stroke="var(--stroke-0, white)" stroke-width="1.27295" stroke-linecap="round" stroke-linejoin="round"/>
<path id="Vector_2" d="M5.72816 7.00127C7.13423 7.00127 8.27407 5.86143 8.27407 4.45537C8.27407 3.0493 7.13423 1.90946 5.72816 1.90946C4.3221 1.90946 3.18226 3.0493 3.18226 4.45537C3.18226 5.86143 4.3221 7.00127 5.72816 7.00127Z" stroke="var(--stroke-0, white)" stroke-width="1.27295" stroke-linecap="round" stroke-linejoin="round"/>
<path id="Vector_3" d="M14.0024 13.3653V12.0924C14.002 11.5283 13.8143 10.9803 13.4687 10.5345C13.1231 10.0887 12.6392 9.77026 12.093 9.62923" stroke="var(--stroke-0, white)" stroke-width="1.27295" stroke-linecap="round" stroke-linejoin="round"/>
<path id="Vector_4" d="M10.1836 1.99208C10.7312 2.13229 11.2166 2.45079 11.5633 2.89734C11.9099 3.3439 12.098 3.89312 12.098 4.45842C12.098 5.02372 11.9099 5.57294 11.5633 6.0195C11.2166 6.46606 10.7312 6.78455 10.1836 6.92477" stroke="var(--stroke-0, white)" stroke-width="1.27295" stroke-linecap="round" stroke-linejoin="round"/>
</g>
</svg>
