<svg preserveAspectRatio="none" width="100%" height="100%" overflow="visible" style="display: block;" viewBox="0 0 1431.44 903.043" fill="none" xmlns="http://www.w3.org/2000/svg">
<g id="Camada 1">
<path id="Vector" d="M1133.13 5.3894e-05C956.771 5.3894e-05 803.737 101.641 729.464 249.401C699.491 308.986 683.186 374.506 681.736 441.189C678.626 579.172 567.636 697.24 429.779 703.497H429.6C416.769 703.497 403.957 702.523 391.274 700.583C388.736 700.19 386.234 699.689 383.731 699.224C382.122 698.938 380.495 698.688 378.905 698.366C335.661 689.441 295.527 669.294 262.534 639.949C261.783 639.27 260.997 638.644 260.246 637.965C259.209 637.017 258.208 635.998 257.171 635.033C229.227 608.789 207.618 576.532 193.981 540.703C179.055 501.377 142.141 474.813 100.134 474.813C30.8833 474.813 -17.8457 543.813 6.23277 608.72C33.1009 680.432 77.68 744.177 135.819 794.021C193.957 843.864 263.764 878.184 338.738 893.783C341.133 894.266 343.546 894.713 345.888 895.16C347.175 895.41 348.444 895.678 349.714 895.893C376.066 900.635 402.788 903.028 429.564 903.043C639.085 903.043 815.678 759.555 866.41 565.675C866.535 565.193 866.678 564.728 866.803 564.245C866.928 563.763 866.946 563.602 867.035 563.28C875.889 528.627 880.576 493.041 880.996 457.277C882.784 318.169 990.77 201.28 1129.9 199.564C1166.23 199.109 1202.24 206.545 1235.42 221.358C1268.6 236.172 1298.18 258.011 1322.1 285.367C1345.68 220.713 1382.98 161.931 1431.44 113.064C1349.17 40.1695 1243.05 -0.0537433 1133.13 5.3894e-05Z" fill="url(#paint0_linear_79_557)" fill-opacity="0.1"/>
</g>
<defs>
<linearGradient id="paint0_linear_79_557" x1="-88.3862" y1="559.935" x2="1343.11" y2="-18.0705" gradientUnits="userSpaceOnUse">
<stop offset="0.150829" stop-color="#0B95DA"/>
<stop offset="1" stop-color="#0B95DA"/>
</linearGradient>
</defs>
</svg>
