<svg preserveAspectRatio="none" width="100%" height="100%" overflow="visible" style="display: block;" viewBox="0 0 12.2203 12.2203" fill="none" xmlns="http://www.w3.org/2000/svg">
<g id="Icon">
<path id="Vector" d="M2.03673 7.12831C1.94038 7.12864 1.84591 7.10162 1.7643 7.0504C1.68269 6.99917 1.61729 6.92584 1.5757 6.83892C1.5341 6.75201 1.51803 6.65507 1.52933 6.55938C1.54064 6.46369 1.57887 6.37318 1.63957 6.29835L6.68046 1.1047C6.71828 1.06106 6.7698 1.03156 6.82659 1.02106C6.88337 1.01056 6.94204 1.01968 6.99296 1.04691C7.04388 1.07415 7.08403 1.11789 7.10682 1.17095C7.1296 1.22401 7.13367 1.28325 7.11836 1.33893L6.14073 4.40419C6.1119 4.48135 6.10222 4.56434 6.11252 4.64606C6.12281 4.72777 6.15278 4.80577 6.19984 4.87337C6.24691 4.94096 6.30966 4.99612 6.38273 5.03413C6.4558 5.07214 6.537 5.09186 6.61936 5.09159H10.1836C10.28 5.09126 10.3745 5.11828 10.4561 5.1695C10.5377 5.22073 10.6031 5.29406 10.6447 5.38098C10.6863 5.46789 10.7023 5.56483 10.691 5.66052C10.6797 5.75621 10.6415 5.84672 10.5808 5.92155L5.5399 11.1152C5.50208 11.1588 5.45056 11.1883 5.39377 11.1988C5.33699 11.2093 5.27832 11.2002 5.2274 11.173C5.17648 11.1458 5.13633 11.102 5.11354 11.0489C5.09076 10.9959 5.08669 10.9367 5.102 10.881L6.07963 7.81571C6.10846 7.73855 6.11814 7.65556 6.10784 7.57384C6.09755 7.49212 6.06758 7.41412 6.02052 7.34653C5.97345 7.27894 5.9107 7.22378 5.83763 7.18577C5.76456 7.14776 5.68336 7.12804 5.601 7.12831H2.03673Z" stroke="var(--stroke-0, #FFDF20)" stroke-width="1.01836" stroke-linecap="round" stroke-linejoin="round"/>
</g>
</svg>
