<svg preserveAspectRatio="none" width="100%" height="100%" overflow="visible" style="display: block;" viewBox="0 0 14.0028 14.0028" fill="none" xmlns="http://www.w3.org/2000/svg">
<path id="Vector" d="M5.68721 9.22906C5.63039 9.00879 5.51558 8.80778 5.35473 8.64693C5.19388 8.48608 4.99286 8.37127 4.7726 8.31444L0.867819 7.30754C0.8012 7.28863 0.742566 7.24851 0.700816 7.19326C0.659065 7.13801 0.636476 7.07065 0.636476 7.00139C0.636476 6.93214 0.659065 6.86478 0.700816 6.80953C0.742566 6.75428 0.8012 6.71416 0.867819 6.69525L4.7726 5.68771C4.99279 5.63094 5.19375 5.51622 5.35459 5.35549C5.51544 5.19476 5.63029 4.99388 5.68721 4.77373L6.69412 0.868948C6.71284 0.802066 6.75292 0.743144 6.80825 0.70117C6.86359 0.659196 6.93113 0.636476 7.00058 0.636476C7.07003 0.636476 7.13758 0.659196 7.19291 0.70117C7.24825 0.743144 7.28833 0.802066 7.30705 0.868948L8.31331 4.77373C8.37014 4.994 8.48495 5.19501 8.6458 5.35586C8.80665 5.51671 9.00766 5.63152 9.22793 5.68835L13.1327 6.69461C13.1999 6.71313 13.2591 6.75318 13.3013 6.80859C13.3435 6.86401 13.3663 6.93174 13.3663 7.00139C13.3663 7.07105 13.3435 7.13878 13.3013 7.1942C13.2591 7.24961 13.1999 7.28966 13.1327 7.30818L9.22793 8.31444C9.00766 8.37127 8.80665 8.48608 8.6458 8.64693C8.48495 8.80778 8.37014 9.00879 8.31331 9.22906L7.30641 13.1338C7.28769 13.2007 7.24761 13.2596 7.19228 13.3016C7.13694 13.3436 7.0694 13.3663 6.99995 13.3663C6.93049 13.3663 6.86295 13.3436 6.80762 13.3016C6.75228 13.2596 6.7122 13.2007 6.69348 13.1338L5.68721 9.22906Z" stroke="var(--stroke-0, #0B95DA)" stroke-width="1.27295" stroke-linecap="round" stroke-linejoin="round"/>
</svg>
