<svg preserveAspectRatio="none" width="100%" height="100%" overflow="visible" style="display: block;" viewBox="0 0 26 26" fill="none" xmlns="http://www.w3.org/2000/svg">
<g id="Icon">
<path id="Vector" d="M4.87505 17.875C3.25005 19.24 2.70839 23.2917 2.70839 23.2917C2.70839 23.2917 6.76005 22.75 8.12505 21.125C8.89422 20.215 8.88339 18.8175 8.02755 17.9725C7.60647 17.5706 7.05179 17.3384 6.46996 17.3204C5.88814 17.3024 5.32017 17.4999 4.87505 17.875Z" stroke="var(--stroke-0, white)" stroke-width="2.16667" stroke-linecap="round" stroke-linejoin="round"/>
<path id="Vector_2" d="M13 16.2501L9.75 13.0001C10.3265 11.5044 11.0524 10.0708 11.9167 8.72089C13.1789 6.70263 14.9366 5.04086 17.0224 3.89366C19.1082 2.74645 21.4529 2.15196 23.8333 2.16672C23.8333 5.11339 22.9883 10.2917 17.3333 14.0834C15.965 14.9487 14.5132 15.6745 13 16.2501Z" stroke="var(--stroke-0, white)" stroke-width="2.16667" stroke-linecap="round" stroke-linejoin="round"/>
<path id="Vector_3" d="M9.75005 12.9999H4.33339C4.33339 12.9999 4.92922 9.71742 6.50005 8.66658C8.25505 7.49658 11.9167 8.66658 11.9167 8.66658" stroke="var(--stroke-0, white)" stroke-width="2.16667" stroke-linecap="round" stroke-linejoin="round"/>
<path id="Vector_4" d="M13 16.2501V21.6667C13 21.6667 16.2825 21.0709 17.3333 19.5001C18.5033 17.7451 17.3333 14.0834 17.3333 14.0834" stroke="var(--stroke-0, white)" stroke-width="2.16667" stroke-linecap="round" stroke-linejoin="round"/>
</g>
</svg>
