<svg width="100%" height="100%" overflow="visible" style="display: block;" viewBox="0 0 397.1 209" fill="none" xmlns="http://www.w3.org/2000/svg">
<g id="logo3CON 2" clip-path="url(#clip0_66_419)">
<path id="Vector" d="M0.24968 96.5774C0.325793 96.2717 0.363849 96.1407 0.472581 95.8241C1.40768 92.0798 3.50077 89.1542 6.86058 87.2711C13.2595 83.6851 21.4415 85.852 25.0188 92.7184C25.3613 93.3734 25.6386 94.0611 25.9213 94.7489C29.5149 103.433 35.6093 109.617 44.2698 113.241C48.0265 114.813 51.9517 115.621 56.0183 115.637C60.3948 115.654 64.5538 114.562 68.5279 112.799C72.7032 110.949 76.4056 108.362 79.5479 105.032C84.7344 99.5302 88.029 93.0677 89.1544 85.53C89.4588 83.4886 89.5241 81.4418 89.6219 79.3895C89.8938 73.6802 90.9811 68.1292 92.8893 62.7529C95.1346 56.4159 98.3531 50.6029 102.588 45.3685C107.481 39.3154 113.271 34.332 120.072 30.555C127.205 26.5923 134.816 24.1852 142.939 23.432C152.072 22.586 160.956 23.6285 169.556 26.8925C175.955 29.3159 181.772 32.7219 186.981 37.1758C187.106 37.2849 187.247 37.3722 187.367 37.4814C187.965 38.0381 187.975 38.0654 187.426 38.644C185.926 40.2269 184.501 41.8698 183.159 43.5891C179.271 48.5452 176.222 53.9816 173.971 59.8655C173.867 60.1275 173.742 60.384 173.634 60.6133C173.335 60.6897 173.248 60.4823 173.106 60.3349C168.328 55.1824 162.57 51.6673 155.682 50.2536C145.401 48.1413 136.089 50.3737 128.042 57.1691C121.372 62.802 117.479 70.0614 116.18 78.7345C115.826 81.1088 115.826 83.4886 115.707 85.8684C115.473 90.5679 114.657 95.1691 113.315 99.6776C110.863 107.887 106.791 115.217 101.191 121.669C96.2274 127.383 90.3559 131.957 83.6417 135.451C77.5636 138.611 71.1212 140.598 64.3581 141.526C61.145 141.968 57.8994 142.181 54.6537 142.033C46.5369 141.668 38.7517 139.905 31.3796 136.384C25.1656 133.415 19.6366 129.507 14.7437 124.638C8.8232 118.743 4.3815 111.899 1.32069 104.137C0.918382 103.111 0.630242 102.041 0.287737 100.993C0.124639 100.709 0.140948 100.606 0.00503343 100.278" fill="var(--fill-0, white)"/>
<path id="Vector_2" d="M97.7394 0.212953C101.768 1.05352 105.285 4.42123 105.796 9.54102C106.052 12.1337 105.269 14.508 103.709 16.6039C100.904 20.3646 98.0928 24.1253 95.2766 27.8806C93.1074 30.7789 90.9274 33.6717 88.7527 36.57C88.5298 36.8648 88.2634 37.1322 88.1438 37.5853C89.8129 38.4913 91.4982 39.4192 93.1074 40.4781C95.0701 41.7662 96.9022 43.229 98.7017 44.73C99.1366 45.0903 99.1529 45.3741 98.7996 45.849C95.7877 49.899 93.3684 54.2874 91.433 58.9487C89.6117 63.3371 88.3395 67.8783 87.5512 72.5832C87.0946 72.5832 87.0837 72.1739 86.9586 71.9228C84.2621 66.6011 80.1629 62.7912 74.6937 60.466C71.8286 59.2489 68.8222 58.6485 65.7124 58.643C61.972 58.6321 58.2262 58.6485 54.4858 58.643C51.5066 58.6321 49.2667 57.2894 47.8586 54.6913C46.4234 52.0495 46.4886 49.3477 48.2066 46.8642C50.0061 44.2552 51.9633 41.7608 53.8606 39.2227C56.8181 35.2655 59.7865 31.3192 62.744 27.3566C62.9561 27.0728 63.2768 26.8435 63.3203 26.2813C62.8745 26.2813 62.4396 26.2813 62.0101 26.2813C47.5379 26.2813 33.0602 26.2322 18.588 26.3032C12.4392 26.3359 6.71445 21.3744 5.85547 14.9446C4.98017 8.36205 9.2479 1.89408 15.674 0.376699C15.8751 0.327575 16.0708 0.267535 16.2666 0.212953C16.4895 0.0273738 16.8211 0.234785 17.0222 -0.00537538H97.2229C97.3534 0.158371 97.5818 0.0819558 97.734 0.207494L97.7394 0.212953Z" fill="var(--fill-0, white)"/>
<path id="Vector_3" d="M319.569 208.76C320.227 208.853 320.939 208.503 321.548 209H319.575C319.58 208.918 319.58 208.842 319.575 208.76H319.569Z" fill="var(--fill-0, #0B95DA)"/>
<path id="Vector_4" d="M322.287 209C322.896 208.498 323.609 208.863 324.266 208.76C324.261 208.842 324.256 208.918 324.266 209H322.293H322.287Z" fill="var(--fill-0, #0B95DA)"/>
<path id="Vector_5" d="M397.094 78.2324C397.083 78.6036 397.061 78.9747 397.061 79.3459C397.061 96.7739 397.061 114.207 397.061 131.635C397.061 132.007 397.089 132.378 397.099 132.743C396.665 136.542 394.756 139.484 391.701 141.64C383.709 147.29 372.232 142.808 370.721 132.329C370.661 131.925 370.699 131.504 370.699 131.095C370.699 115.168 370.71 99.241 370.688 83.314C370.688 79.728 370.324 76.1801 369.313 72.7142C367.742 67.3488 365.007 62.6984 361.071 58.7302C356.695 54.32 351.53 51.3617 345.506 49.9589C336.726 47.9121 328.479 49.3094 320.802 54.0198C315.556 57.2402 311.593 61.6886 308.842 67.1795C306.645 71.5734 305.466 76.2511 305.471 81.2071C305.487 97.5872 305.487 113.973 305.471 130.353C305.471 133.66 304.525 136.679 302.367 139.25C299.98 142.099 296.936 143.704 293.244 144.036C286.563 144.642 280.343 140.167 278.979 133.284C278.756 132.165 278.674 130.997 278.669 129.851C278.647 113.924 278.598 97.9966 278.674 82.0695C278.718 72.3812 280.8 63.135 285.28 54.5001C288.574 48.1523 292.842 42.5685 298.126 37.738C302.1 34.1083 306.477 31.0735 311.256 28.6337C316.703 25.8555 322.466 24.0052 328.506 23.0282C332.572 22.3677 336.672 22.1276 340.776 22.324C345.62 22.5533 350.388 23.3447 355.047 24.7584C363.469 27.3128 370.977 31.5047 377.522 37.3887C385.987 44.9974 391.799 54.3146 394.99 65.2528C396.224 69.4829 397.034 73.8058 397.105 78.2379L397.094 78.2324Z" fill="var(--fill-0, white)"/>
<path id="Vector_6" d="M117.946 94.3504C119.136 97.2596 120.566 100.032 122.496 102.527C127.753 109.311 134.549 113.601 142.998 115.163C150 116.456 156.73 115.463 163.124 112.362C166.886 110.539 170.229 108.094 173.002 104.917C173.209 104.677 173.394 104.383 173.839 104.301C174.35 105.48 174.851 106.675 175.378 107.859C178.058 113.891 181.619 119.349 186.061 124.218C186.643 124.856 187.23 125.489 187.817 126.123C188.399 126.745 188.42 126.783 187.746 127.373C186.012 128.89 184.196 130.304 182.304 131.614C176.465 135.647 170.104 138.545 163.233 140.281C159.612 141.193 155.931 141.76 152.191 141.946C150.837 142.011 149.489 142.11 148.141 142.082C142.372 141.962 136.718 141.127 131.2 139.397C123.246 136.908 116.146 132.891 109.856 127.427C108.182 125.97 106.545 124.463 105.115 122.755C104.496 122.018 104.517 121.996 105.115 121.232C107.817 117.788 110.177 114.131 112.112 110.201C114.401 105.567 116.103 100.731 117.185 95.6767C117.277 95.2346 117.386 94.7925 117.489 94.3558C117.636 94.1976 117.788 94.1976 117.94 94.3504H117.946Z" fill="var(--fill-0, white)"/>
<path id="Vector_7" d="M205.774 181.19C205.774 185.732 205.742 190.267 205.796 194.809C205.812 196.048 205.454 196.894 203.823 197.363C202.594 197.718 201.392 197.642 200.218 197.118C199.381 196.741 198.946 196.108 198.94 195.185C198.94 194.896 198.94 194.607 198.94 194.317C198.94 185.486 198.94 176.655 198.94 167.823C198.94 167.534 198.919 167.245 198.94 166.955C198.995 166.361 198.734 166.17 198.152 166.175C196.135 166.202 194.124 166.186 192.107 166.186C190.448 166.186 189.557 165.318 189.492 163.626C189.459 162.764 189.416 161.896 189.91 161.104C190.285 160.504 190.737 160.155 191.498 160.155C198.734 160.171 205.975 160.176 213.212 160.155C214.032 160.155 214.538 160.515 214.848 161.208C215.397 162.442 215.381 163.697 214.886 164.93C214.549 165.771 213.94 166.208 212.972 166.191C210.955 166.153 208.944 166.175 206.927 166.18C205.78 166.18 205.769 166.191 205.769 167.316C205.769 171.939 205.769 176.562 205.769 181.18L205.774 181.19Z" fill="var(--fill-0, white)"/>
<path id="Vector_8" d="M347.915 177.446C347.915 173.32 347.915 169.199 347.915 165.072C347.915 163.571 348.312 162.965 349.726 162.573C350.895 162.25 352.091 162.256 353.222 162.764C354.113 163.167 354.613 163.812 354.592 164.881C354.543 167.272 354.57 169.668 354.575 172.059C354.575 173.112 354.586 173.118 355.668 173.123C357.065 173.129 358.462 173.161 359.86 173.112C361.42 173.058 362.045 173.724 362.219 175.448C362.268 175.945 362.181 176.425 362.007 176.9C361.719 177.681 361.23 178.101 360.349 178.085C358.745 178.052 357.141 178.068 355.538 178.079C354.597 178.085 354.575 178.101 354.575 179.034C354.564 182.5 354.559 185.966 354.575 189.427C354.586 191.081 355.326 191.801 356.995 191.861C357.941 191.894 358.887 191.861 359.827 191.91C361.235 191.976 362.203 193.209 362.187 194.738C362.165 196.337 361.344 197.418 359.914 197.51C357.75 197.652 355.57 197.712 353.428 197.128C349.786 196.135 347.915 193.722 347.905 189.94C347.899 185.775 347.905 181.605 347.905 177.441L347.915 177.446Z" fill="var(--fill-0, white)"/>
<path id="Vector_9" d="M179.196 178.767C179.196 173.483 179.229 168.205 179.175 162.922C179.158 161.252 179.696 160.455 181.643 160.209C182.725 160.067 183.85 160.045 184.905 160.569C185.617 160.924 185.959 161.454 186.025 162.207C186.052 162.534 186.03 162.867 186.03 163.195C186.03 173.593 186.03 183.991 186.03 194.388C186.03 196.479 185.405 197.243 183.399 197.532C182.496 197.663 181.594 197.576 180.735 197.238C179.626 196.801 179.202 196.201 179.202 194.983C179.196 190.115 179.202 185.246 179.202 180.377C179.202 179.842 179.202 179.302 179.202 178.767H179.196Z" fill="var(--fill-0, white)"/>
<path id="Vector_10" d="M389.941 178.259C389.941 172.736 389.941 167.212 389.941 161.688C389.941 160.073 390.294 159.614 391.887 159.177C393.078 158.85 394.23 158.937 395.361 159.445C396.198 159.822 396.666 160.411 396.606 161.366C396.595 161.574 396.606 161.776 396.606 161.983C396.606 172.823 396.606 183.663 396.606 194.503C396.606 196.299 395.948 197.145 394.198 197.489C393.301 197.663 392.398 197.609 391.528 197.292C390.419 196.883 389.941 196.173 389.941 194.951C389.941 189.389 389.941 183.821 389.941 178.259Z" fill="var(--fill-0, white)"/>
<path id="Vector_11" d="M336.317 185.224C336.317 182.255 336.317 179.286 336.317 176.316C336.317 174.084 336.687 173.68 338.927 173.216C339.862 173.02 340.727 173.2 341.569 173.511C342.597 173.887 343.081 174.619 343.07 175.787C343.032 181.807 343.053 187.828 343.053 193.848C343.053 194.263 343.032 194.672 343.053 195.087C343.102 195.928 342.705 196.506 342.02 196.921C340.612 197.767 339.144 197.832 337.671 197.145C336.742 196.714 336.279 195.982 336.296 194.88C336.339 191.665 336.312 188.444 336.312 185.229L336.317 185.224Z" fill="var(--fill-0, white)"/>
<path id="Vector_12" d="M300.78 185.219C300.78 182.047 300.78 178.871 300.78 175.7C300.78 174.373 301.182 173.795 302.384 173.402C303.64 172.992 304.885 173.069 306.102 173.565C306.988 173.926 307.445 174.559 307.445 175.563C307.429 182.075 307.423 188.586 307.451 195.092C307.451 196.261 306.744 196.834 305.874 197.221C304.624 197.778 303.319 197.745 302.068 197.134C301.188 196.703 300.736 196.053 300.753 194.989C300.807 191.736 300.774 188.477 300.774 185.224L300.78 185.219Z" fill="var(--fill-0, white)"/>
<path id="Vector_13" d="M304.124 167.883C303.129 167.878 302.243 167.589 301.46 166.885C299.606 165.22 300.182 162.392 302.754 161.535C303.64 161.241 304.629 161.257 305.537 161.574C307.005 162.092 307.853 163.457 307.69 164.925C307.538 166.339 306.211 167.654 304.76 167.834C304.559 167.862 304.352 167.862 304.129 167.872L304.124 167.883Z" fill="var(--fill-0, white)"/>
<path id="Vector_14" d="M339.566 161.421C340.713 161.333 341.626 161.59 342.377 162.349C343.883 163.877 343.507 166.268 341.583 167.387C340.169 168.205 338.19 167.981 337.005 166.857C336.027 165.935 335.804 164.761 336.195 163.571C336.587 162.37 337.516 161.606 338.816 161.421C339.098 161.383 339.392 161.415 339.566 161.415V161.421Z" fill="var(--fill-0, white)"/>
<path id="Vector_15" d="M117.946 94.3504C117.794 94.3504 117.647 94.3504 117.495 94.3559C117.517 94.1485 117.327 93.8101 117.642 93.7828C117.876 93.7664 117.952 94.0939 117.946 94.3504Z" fill="var(--fill-0, #65ABDC)"/>
<path id="Vector_16" d="M330.752 195.764C329.311 194.727 327.669 194.225 325.973 193.908C324.326 193.602 322.651 193.417 320.993 193.16C320.428 193.073 319.862 192.958 319.308 192.816C318.992 192.735 318.693 192.587 318.405 192.434C317.905 192.167 317.698 191.741 317.889 191.19C318.084 190.639 318.525 190.66 319.009 190.742C321.471 191.141 323.923 191.168 326.277 190.202C328.882 189.132 330.763 187.358 331.535 184.547C331.823 183.488 331.643 182.413 331.709 181.349C331.806 179.728 331.453 178.227 330.485 176.917C330.094 176.393 330.203 176.005 330.665 175.661C331.257 175.219 331.882 174.821 332.47 174.373C333.345 173.707 333.448 172.752 332.769 171.89C331.785 170.64 330.159 170.536 328.99 171.628C328.43 172.152 328.099 172.812 327.8 173.489C327.55 174.046 327.289 174.193 326.674 173.915C324.206 172.785 321.613 172.61 318.971 173.123C316.415 173.62 314.148 174.706 312.816 177.037C311.158 179.935 311.218 183.008 312.447 186.081C312.898 187.216 313.817 188.002 314.6 188.881C311.18 191.654 311.718 194.459 313.991 196.233C313.534 196.583 313.066 196.91 312.632 197.281C311.832 197.958 311.218 198.755 310.897 199.776C310.065 202.434 311.071 205.054 313.561 206.729C315.382 207.957 317.454 208.421 319.569 208.765C320.199 209.082 320.917 208.667 321.548 209.005H322.287C322.918 208.667 323.635 209.076 324.266 208.765C325.761 208.503 327.251 208.219 328.637 207.559C331.67 206.118 333.28 203.842 333.106 200.3C333.013 198.433 332.312 196.888 330.752 195.769V195.764ZM318.971 178.44C320.351 176.382 323.418 176.475 324.57 178.669C325.69 180.803 325.614 183.03 324.592 185.186C324.037 186.354 323.015 186.927 321.705 186.916C320.4 186.905 319.449 186.305 318.813 185.169C318.231 184.132 318.057 183.013 318.133 181.845C318.057 180.623 318.28 179.466 318.971 178.445V178.44ZM325.337 203.378C324.288 204.197 323.092 204.524 322.32 204.508C320.564 204.486 319.433 204.191 318.411 203.509C316.709 202.374 316.459 200.218 317.883 198.739C318.721 197.865 319.677 197.358 320.96 197.62C322.124 197.854 323.298 197.991 324.434 198.367C327.006 199.213 327.18 201.943 325.337 203.378Z" fill="var(--fill-0, white)"/>
<path id="Vector_17" d="M282.66 51.5035C279.512 46.28 275.695 41.6133 271.118 37.6015C259.87 27.744 246.735 22.8316 231.822 22.6842C228.81 22.6515 225.831 22.9135 222.868 23.3611C216.404 24.349 210.271 26.3576 204.465 29.3814C198.387 32.5472 193.021 36.6627 188.373 41.6842C183.899 46.5202 180.332 51.9729 177.652 58.0152C174.352 65.4438 172.748 73.2436 172.547 81.349C172.514 82.6644 172.623 83.9798 172.683 85.2953C172.83 88.8868 173.33 92.4182 174.167 95.9006C177.054 107.898 183.04 118.05 192.157 126.346C197.131 130.877 202.725 134.419 208.901 137.039C215.627 139.888 222.651 141.4 229.941 141.64C234.176 141.782 238.379 141.438 242.559 140.685C248.844 139.55 254.759 137.41 260.353 134.354C265.801 131.373 270.629 127.574 274.945 123.099C275.592 122.427 275.897 121.772 275.891 120.817C275.859 110.709 275.853 100.595 275.875 90.486C275.886 85.9557 275.744 81.4199 276.098 76.8951C276.239 75.0884 276.424 73.2872 276.728 71.5078C277.799 65.1327 279.8 59.0522 282.763 53.3102C283.116 52.6225 283.051 52.1312 282.671 51.5035H282.66ZM231.692 114.873C222.748 114.862 215.012 111.522 208.706 105.158C202.432 98.8262 199.165 91.0373 199.241 82.1459C199.404 63.659 213.99 49.5713 231.877 49.4403C249.85 49.6095 264.463 63.8391 264.436 82.2059C264.409 100.758 249.573 114.895 231.686 114.873H231.692Z" fill="var(--fill-0, white)"/>
<path id="Vector_18" d="M257.313 193.739C256.285 192.669 255.285 191.572 254.219 190.551C253.703 190.06 253.665 189.645 254.002 189.05C254.796 187.647 255.339 186.136 255.725 184.569C256.149 182.85 256.535 181.119 256.378 179.335C256.215 177.49 255.513 176.846 253.714 176.829C253.426 176.829 253.138 176.818 252.849 176.829C251.267 176.889 250.62 177.512 250.512 179.078C250.43 180.224 250.37 181.376 250.251 182.517C250.147 183.494 249.93 184.454 249.473 185.339C249.082 185.251 248.908 184.946 248.696 184.722C245.407 181.267 242.101 177.828 238.856 174.329C237.741 173.129 236.719 171.808 236.3 170.159C235.893 168.555 236.007 167.021 237.312 165.826C238.856 164.412 241.514 164.286 243.281 165.416C244.167 165.984 244.798 166.797 245.51 167.529C246.233 168.271 247.092 168.626 248.082 168.287C250.131 167.583 251.344 165.602 249.946 163.38C249.462 162.611 248.821 161.961 248.06 161.448C244.102 158.768 239.845 158.555 235.485 160.16C229.521 162.36 228.678 168.577 230.739 172.801C231.25 173.844 231.978 174.744 232.663 175.667C233.169 176.349 233.185 176.371 232.44 176.857C230.788 177.932 229.494 179.34 228.499 181.032C225.438 186.228 226.939 193.373 232.93 196.49C236.262 198.225 239.764 198.389 243.346 197.691C245.728 197.227 247.799 196.037 249.647 194.487C250.126 194.088 250.349 194.148 250.724 194.579C251.458 195.414 252.235 196.206 253.023 196.992C254.426 198.395 255.959 198.378 257.318 196.97C258.346 195.906 258.346 194.803 257.313 193.728V193.739ZM245.461 190.546C244.031 191.692 242.379 192.211 240.742 192.189C239.568 192.189 238.6 192.041 237.665 191.708C233.386 190.186 232.636 185.142 235.251 182.113C235.654 181.649 236.121 181.24 236.551 180.797C236.839 180.497 237.094 180.514 237.382 180.808C238.127 181.573 238.899 182.309 239.639 183.079C241.601 185.12 243.553 187.167 245.51 189.214C246.157 189.891 246.168 189.978 245.467 190.546H245.461Z" fill="var(--fill-0, white)"/>
<path id="Vector_19" d="M295.856 172.577C295.861 171.377 295.736 170.192 295.579 169.013C295.361 167.414 294.85 165.897 293.904 164.548C291.784 161.514 288.696 160.335 285.206 160.198C281.596 160.056 277.97 160.155 274.354 160.171C272.538 160.182 271.745 161.012 271.739 162.829C271.739 168.195 271.739 173.554 271.739 178.92C271.739 180.033 271.739 181.147 271.739 182.26C271.739 186.55 271.739 190.841 271.739 195.131C271.739 196.413 272.201 196.992 273.403 197.401C273.843 197.549 274.283 197.56 274.735 197.56C277.861 197.56 280.981 197.549 284.107 197.56C285.472 197.565 286.809 197.38 288.114 197.014C292.159 195.884 294.714 193.34 295.464 189.105C295.677 187.888 295.84 186.671 295.84 185.437C295.85 181.147 295.834 176.857 295.85 172.567L295.856 172.577ZM289.006 185.988C289.006 186.398 288.99 186.818 288.93 187.222C288.506 189.995 286.668 191.588 283.863 191.616C282.384 191.632 280.9 191.627 279.421 191.616C278.415 191.61 278.399 191.599 278.399 190.59C278.394 186.671 278.399 182.752 278.399 178.827C278.399 174.903 278.399 171.071 278.399 167.19C278.399 166.126 278.415 166.12 279.497 166.115C281.019 166.109 282.542 166.104 284.064 166.115C286.777 166.131 288.631 167.812 288.941 170.514C288.984 170.88 289.006 171.257 289.006 171.622C289.006 176.409 289.006 181.196 289.006 185.983V185.988Z" fill="var(--fill-0, white)"/>
<path id="Vector_20" d="M384.674 182.588C384.614 178.025 382.097 174.466 377.649 173.309C376.002 172.878 374.317 172.763 372.642 172.899C370.718 173.058 368.842 173.467 367.113 174.433C365.417 175.383 365.08 176.507 365.868 178.5C366.445 179.957 367.619 180.388 368.945 179.575C370.103 178.865 371.338 178.478 372.648 178.363C375.605 178.107 377.492 179.313 378.003 182.495C378.144 183.363 378.003 183.494 377.138 183.527C375.828 183.581 374.518 183.603 373.208 183.718C371.571 183.854 369.94 184.078 368.402 184.689C366.396 185.486 364.835 186.741 364.297 188.952C364.074 189.869 363.96 190.813 364.02 191.768C364.188 194.41 365.287 196.49 367.815 197.483C370.549 198.553 373.224 198.236 375.665 196.555C376.535 195.955 377.323 195.229 378.247 194.476C378.432 196.905 379.242 197.156 380.536 197.483C381.379 197.696 382.249 197.625 383.075 197.309C384.233 196.861 384.663 196.244 384.663 194.972C384.663 190.846 384.706 186.72 384.652 182.593L384.674 182.588ZM373.316 192.931C371.968 192.92 371.207 192.369 370.865 191.146C370.489 189.809 370.865 188.728 371.995 188.062C372.414 187.817 372.882 187.604 373.355 187.5C374.643 187.227 375.948 187.145 377.269 187.156C377.747 187.156 378.008 187.26 378.041 187.833C378.182 190.235 375.692 192.953 373.322 192.931H373.316Z" fill="var(--fill-0, white)"/>
</g>
<defs>
<clipPath id="clip0_66_419">
<rect width="397.1" height="209" fill="white"/>
</clipPath>
</defs>
</svg>
