<svg preserveAspectRatio="none" width="100%" height="100%" overflow="visible" style="display: block;" viewBox="0 0 25.9685 32.472" fill="none" xmlns="http://www.w3.org/2000/svg">
<path id="Vector" d="M25.3217 28.8536C24.4646 27.9612 23.6302 27.0461 22.7414 26.1947C22.3106 25.7849 22.2788 25.4389 22.56 24.9427C23.2221 23.7726 23.6756 22.5115 23.9975 21.2048C24.3513 19.7707 24.6732 18.3274 24.5417 16.8386C24.4057 15.2998 23.8207 14.7625 22.3196 14.7489C22.0793 14.7489 21.839 14.7398 21.5986 14.7489C20.279 14.799 19.7393 15.318 19.6486 16.6246C19.5806 17.5807 19.5307 18.5414 19.431 19.4929C19.3448 20.3079 19.1634 21.1092 18.7825 21.8467C18.456 21.7739 18.3109 21.5189 18.134 21.3323C15.3905 18.4503 12.6333 15.582 9.92599 12.6637C8.99636 11.6621 8.1438 10.5603 7.79462 9.1853C7.45451 7.84677 7.54975 6.56742 8.63811 5.57035C9.92599 4.39116 12.1435 4.28644 13.6173 5.22888C14.3565 5.70238 14.8825 6.38075 15.4766 6.99083C16.0797 7.61002 16.7962 7.90596 17.6216 7.62368C19.3312 7.03636 20.3425 5.38367 19.177 3.53067C18.7734 2.88872 18.2383 2.34694 17.6034 1.91897C14.3021 -0.316471 10.7513 -0.494039 7.1144 0.844495C2.1397 2.67929 1.43681 7.86498 3.15551 11.3889C3.58178 12.2585 4.18944 13.0097 4.76083 13.7791C5.18256 14.3482 5.19617 14.3664 4.5749 14.7716C3.19631 15.6685 2.11702 16.8432 1.28715 18.2546C-1.26595 22.5889 -0.0143296 28.5485 4.98304 31.1482C7.76289 32.596 10.6833 32.7326 13.6717 32.1498C15.658 31.7628 17.3858 30.7703 18.9276 29.4773C19.3267 29.145 19.5126 29.195 19.8255 29.5547C20.4377 30.2513 21.0862 30.9115 21.7437 31.5671C22.9137 32.7371 24.1925 32.7235 25.3262 31.5488C26.1833 30.661 26.1833 29.7414 25.3217 28.8445V28.8536ZM15.4358 26.1902C14.2431 27.1463 12.8646 27.5788 11.4996 27.5606C10.5201 27.5606 9.71286 27.4376 8.93287 27.1599C5.36396 25.8897 4.73816 21.6828 6.91941 19.156C7.25498 18.769 7.64497 18.4276 8.00322 18.0588C8.24357 17.8084 8.45672 17.822 8.69706 18.0679C9.31833 18.7053 9.96227 19.3199 10.579 19.9619C12.2161 21.6646 13.8441 23.372 15.4766 25.0793C16.0163 25.6438 16.0253 25.7167 15.4403 26.1902H15.4358Z" fill="var(--fill-0, white)"/>
</svg>
