<svg preserveAspectRatio="none" width="100%" height="100%" overflow="visible" style="display: block;" viewBox="0 0 92.1331 99.253" fill="none" xmlns="http://www.w3.org/2000/svg">
<path id="Vector" d="M91.8532 24.0413C89.2276 19.6842 86.0441 15.7915 82.2258 12.4452C72.8433 4.22278 61.8871 0.125219 49.4481 0.00229229C46.9358 -0.0250248 44.4508 0.193511 41.9793 0.566844C36.5874 1.39091 31.4721 3.06635 26.6289 5.58863C21.559 8.22928 17.0831 11.6621 13.2058 15.8507C9.47369 19.8845 6.49884 24.4328 4.26318 29.4728C1.51054 35.6692 0.172775 42.1752 0.00498688 48.9362C-0.022222 50.0335 0.0684744 51.1307 0.118357 52.2279C0.240798 55.2237 0.657992 58.1694 1.35635 61.0741C3.76434 71.0812 8.75719 79.5495 16.3621 86.4698C20.5114 90.2487 25.1778 93.2035 30.3293 95.3889C35.9389 97.7654 41.7979 99.0266 47.8791 99.2269C51.4117 99.3453 54.9171 99.0584 58.4044 98.4302C63.6467 97.4832 68.5805 95.6984 73.2469 93.1489C77.7908 90.663 81.8177 87.4942 85.4183 83.7609C85.958 83.2009 86.2119 82.6546 86.2074 81.8578C86.1802 73.426 86.1756 64.9895 86.1938 56.5577C86.2028 52.7788 86.0849 48.9954 86.3797 45.2211C86.4976 43.7141 86.6518 42.2117 86.9057 40.7274C87.7991 35.4097 89.4679 30.3379 91.9394 25.5483C92.2341 24.9746 92.1797 24.5649 91.8623 24.0413H91.8532ZM49.3393 76.8998C41.8795 76.8907 35.4265 74.1043 30.1661 68.7957C24.9329 63.5144 22.2075 57.0175 22.271 49.6009C22.407 34.1805 34.5739 22.4296 49.4935 22.3203C64.4856 22.4615 76.6752 34.3307 76.6525 49.651C76.6298 65.1261 64.2543 76.918 49.3348 76.8998H49.3393Z" fill="var(--fill-0, white)"/>
</svg>
