<svg preserveAspectRatio="none" width="100%" height="100%" overflow="visible" style="display: block;" viewBox="0 0 5.56396 32.1997" fill="none" xmlns="http://www.w3.org/2000/svg">
<path id="Vector" d="M0 16.0782C0 11.4707 0 6.86325 0 2.25578C0 0.908137 0.294771 0.525695 1.62347 0.161468C2.6166 -0.111702 3.57796 -0.0388612 4.5212 0.384553C5.21957 0.698699 5.60958 1.19041 5.55969 1.98716C5.55063 2.16017 5.55969 2.32861 5.55969 2.50162C5.55969 11.5436 5.55969 20.5855 5.55969 29.6275C5.55969 31.1253 5.01098 31.831 3.55077 32.1179C2.80253 32.2635 2.04973 32.218 1.32416 31.9539C0.399057 31.6125 0 31.0206 0 30.0008C0 25.3614 0 20.7175 0 16.0782Z" fill="var(--fill-0, white)"/>
</svg>
