<svg preserveAspectRatio="none" width="100%" height="100%" overflow="visible" style="display: block;" viewBox="0 0 156.668 99.2015" fill="none" xmlns="http://www.w3.org/2000/svg">
<path id="Vector" d="M0.204067 61.2467C0.267554 60.9917 0.299298 60.8825 0.389995 60.6184C1.16998 57.4951 2.91589 55.0548 5.71841 53.4841C11.0559 50.4929 17.8808 52.3004 20.8647 58.0278C21.1504 58.5742 21.3817 59.1478 21.6175 59.7215C24.615 66.965 29.6985 72.1234 36.9225 75.1465C40.0561 76.4577 43.3302 77.1315 46.7223 77.1452C50.3728 77.1589 53.8419 76.2483 57.1569 74.7777C60.6396 73.2343 63.7278 71.0763 66.349 68.299C70.6752 63.7098 73.4233 58.3192 74.362 52.0317C74.616 50.329 74.6704 48.6217 74.752 46.9098C74.9787 42.1475 75.8857 37.5173 77.4774 33.0327C79.3503 27.7469 82.0349 22.8981 85.5675 18.5319C89.6489 13.4828 94.4785 9.32609 100.152 6.17552C106.101 2.87016 112.45 0.86236 119.225 0.234068C126.843 -0.471623 134.253 0.39797 141.427 3.12057C146.765 5.14203 151.617 7.983 155.962 11.6981C156.066 11.7892 156.184 11.862 156.284 11.9531C156.782 12.4175 156.791 12.4402 156.333 12.9228C155.082 14.2432 153.894 15.6136 152.774 17.0477C149.531 21.1817 146.987 25.7163 145.11 30.6243C145.024 30.8428 144.919 31.0568 144.829 31.248C144.579 31.3118 144.507 31.1388 144.389 31.0158C140.403 26.7179 135.6 23.7859 129.855 22.6067C121.279 20.8448 113.511 22.7069 106.8 28.3752C101.235 33.0737 97.9884 39.129 96.9046 46.3635C96.6098 48.3439 96.6098 50.329 96.5101 52.314C96.3151 56.234 95.6348 60.072 94.5147 63.8327C92.4695 70.6802 89.073 76.7946 84.4021 82.1761C80.2618 86.9429 75.3642 90.7582 69.7637 93.672C64.6938 96.3081 59.32 97.9654 53.6787 98.7393C50.9986 99.1081 48.2913 99.2857 45.584 99.1627C38.8135 98.8577 32.3197 97.3871 26.1705 94.4505C20.9872 91.9738 16.3752 88.714 12.2939 84.6528C7.35548 79.7358 3.65053 74.0265 1.09743 67.5524C0.76185 66.6964 0.521504 65.8041 0.235811 64.9299C0.099766 64.6932 0.113371 64.6067 0 64.3335" fill="var(--fill-0, white)"/>
</svg>
