<svg preserveAspectRatio="none" width="100%" height="100%" overflow="visible" style="display: block;" viewBox="0 0 5.65087 20.4187" fill="none" xmlns="http://www.w3.org/2000/svg">
<path id="Vector" d="M0.0184772 10.0846C0.0184772 7.60784 0.0184772 5.13109 0.0184772 2.65435C0.0184772 0.792233 0.32684 0.455327 2.19519 0.0683353C2.97517 -0.095567 3.69623 0.0546807 4.39913 0.314193C5.25621 0.628339 5.65979 1.23841 5.65072 2.21272C5.61897 7.2345 5.63713 12.2563 5.63713 17.2781C5.63713 17.6241 5.61899 17.9656 5.63713 18.3116C5.67794 19.0127 5.34689 19.4953 4.7755 19.8413C3.60098 20.547 2.37658 20.6016 1.14764 20.028C0.372189 19.6683 -0.0132566 19.0582 0.000347899 18.1386C0.0366265 15.4569 0.013938 12.7707 0.013938 10.0891L0.0184772 10.0846Z" fill="var(--fill-0, white)"/>
</svg>
