<svg preserveAspectRatio="none" width="100%" height="100%" overflow="visible" style="display: block;" viewBox="0 0 18.8525 31.8055" fill="none" xmlns="http://www.w3.org/2000/svg">
<path id="Vector" d="M16.8003 20.7603C15.5985 19.8953 14.229 19.4764 12.8142 19.2123C11.4401 18.9574 10.0434 18.8026 8.66025 18.5886C8.18863 18.5157 7.71702 18.4201 7.25447 18.3018C6.99145 18.2335 6.74202 18.1105 6.50167 17.9831C6.08447 17.76 5.91214 17.4048 6.07086 16.945C6.23411 16.4852 6.60146 16.5034 7.00506 16.5717C9.05933 16.904 11.1045 16.9268 13.0681 16.1209C15.2403 15.2286 16.8093 13.7489 17.4533 11.4042C17.6936 10.5209 17.544 9.62404 17.5984 8.73624C17.68 7.38405 17.3853 6.13202 16.5781 5.03934C16.2515 4.60226 16.3422 4.279 16.7277 3.99217C17.222 3.62339 17.7435 3.29104 18.2332 2.91771C18.9634 2.36226 19.0495 1.56552 18.4827 0.846173C17.6619 -0.196427 16.306 -0.282936 15.331 0.627632C14.8639 1.0647 14.5873 1.6156 14.3379 2.18015C14.1293 2.64454 13.9116 2.76747 13.3991 2.53527C11.3403 1.59284 9.17723 1.44714 6.97331 1.87511C4.84194 2.28941 2.95092 3.19544 1.83989 5.1395C0.45677 7.55706 0.506656 10.1203 1.53153 12.6836C1.90792 13.6306 2.67428 14.2861 3.3273 15.0192C0.474895 17.332 0.923844 19.6722 2.8194 21.1518C2.43847 21.4432 2.04848 21.7164 1.68569 22.026C1.01908 22.5905 0.506639 23.2553 0.239085 24.1066C-0.454742 26.3239 0.38421 28.5092 2.46116 29.9069C3.98032 30.9313 5.70808 31.3183 7.47213 31.6052C7.99817 31.8692 8.59677 31.5232 9.12281 31.8055H9.73954C10.2656 31.5232 10.8642 31.8647 11.3902 31.6052C12.6373 31.3866 13.8798 31.1499 15.0362 30.599C17.5666 29.397 18.909 27.4985 18.7638 24.5437C18.6867 22.9866 18.1018 21.6982 16.8003 20.7649V20.7603ZM6.97331 6.30958C8.12515 4.59316 10.6828 4.67055 11.6442 6.50079C12.5783 8.28095 12.5148 10.1385 11.6623 11.9369C11.1997 12.9112 10.3472 13.3892 9.25431 13.3801C8.16595 13.371 7.37236 12.8702 6.84178 11.9232C6.35656 11.0582 6.21144 10.1249 6.27493 9.15055C6.21144 8.13071 6.39739 7.16551 6.97331 6.31413V6.30958ZM12.2836 27.1115C11.4083 27.7944 10.4107 28.0676 9.76675 28.0539C8.302 28.0357 7.35876 27.7899 6.50621 27.2208C5.08681 26.2738 4.87822 24.4754 6.06635 23.2416C6.76471 22.5131 7.56282 22.0897 8.63304 22.3083C9.60349 22.504 10.583 22.6178 11.5308 22.932C13.6758 23.6377 13.8209 25.9141 12.2836 27.1115Z" fill="var(--fill-0, white)"/>
</svg>
