<svg preserveAspectRatio="none" width="100%" height="100%" overflow="visible" style="display: block;" viewBox="0 0 69.7281 39.9136" fill="none" xmlns="http://www.w3.org/2000/svg">
<path id="Vector" d="M11.0831 0.0950493C12.0763 2.52171 13.2689 4.83456 14.8788 6.9152C19.2639 12.5744 24.9325 16.1529 31.9796 17.455C37.8204 18.5341 43.4345 17.7054 48.7675 15.1194C51.9056 13.5988 54.6945 11.5591 57.0073 8.90935C57.1796 8.70903 57.3338 8.46317 57.7056 8.39488C58.1319 9.37829 58.5491 10.3754 58.989 11.3633C61.2246 16.3942 64.1949 20.9471 67.8999 25.0082C68.3851 25.5409 68.8749 26.069 69.3646 26.5971C69.8499 27.1162 69.868 27.148 69.3057 27.6397C67.8591 28.9054 66.3444 30.0846 64.7663 31.1773C59.8959 34.5419 54.5902 36.9594 48.8582 38.4072C45.838 39.1675 42.7679 39.641 39.648 39.7958C38.5188 39.8505 37.3942 39.9324 36.2695 39.9096C31.4581 39.8095 26.7419 39.1129 22.139 37.6697C15.5046 35.5936 9.58211 32.2427 4.33532 27.6853C2.93859 26.4697 1.57361 25.2131 0.380955 23.788C-0.136014 23.1734 -0.117875 23.1552 0.380955 22.5178C2.63476 19.645 4.60287 16.5945 6.21727 13.3165C8.12643 9.45114 9.54583 5.41732 10.4483 1.20139C10.5253 0.832606 10.616 0.463827 10.7022 0.0995996C10.8246 -0.0324328 10.9516 -0.0324303 11.0786 0.0950493H11.0831Z" fill="var(--fill-0, white)"/>
</svg>
