<svg preserveAspectRatio="none" width="100%" height="100%" overflow="visible" style="display: block;" viewBox="0 0 11.9535 29.4059" fill="none" xmlns="http://www.w3.org/2000/svg">
<path id="Vector" d="M0.011094 12.59C0.011094 9.14805 0.011094 5.71065 0.011094 2.2687C0.011094 1.01667 0.342144 0.511311 1.5212 0.183506C2.49618 -0.0851114 3.49384 -0.0805558 4.43708 0.342858C5.18079 0.679768 5.59798 1.21699 5.57984 2.10935C5.53902 4.10349 5.56171 6.1022 5.56625 8.09634C5.56625 8.97504 5.57532 8.97959 6.47775 8.98414C7.6432 8.98869 8.80863 9.01601 9.97408 8.97504C11.2756 8.92951 11.7971 9.48496 11.9422 10.9237C11.983 11.338 11.9105 11.7386 11.7653 12.1347C11.525 12.7858 11.1169 13.1363 10.3822 13.1227C9.04445 13.0954 7.70666 13.109 6.36889 13.1181C5.58437 13.1227 5.56625 13.1363 5.56625 13.9149C5.55718 16.8059 5.55264 19.697 5.56625 22.5835C5.57532 23.963 6.19206 24.564 7.58425 24.614C8.37331 24.6414 9.16235 24.614 9.94687 24.655C11.1214 24.7097 11.9286 25.7386 11.915 27.0134C11.8969 28.3474 11.2121 29.2488 10.0194 29.3262C8.21459 29.4446 6.39613 29.4947 4.60941 29.0075C1.57108 28.1789 0.0110851 26.1666 0.00201548 23.0114C-0.00251934 19.5376 0.00201548 16.0593 0.00201548 12.5854L0.011094 12.59Z" fill="var(--fill-0, white)"/>
</svg>
