<svg preserveAspectRatio="none" width="100%" height="100%" overflow="visible" style="display: block;" viewBox="0 0 17.2456 21.0688" fill="none" xmlns="http://www.w3.org/2000/svg">
<path id="Vector" d="M17.2409 8.12664C17.191 4.32047 15.0914 1.35202 11.3819 0.386816C10.0079 0.0271413 8.60209 -0.0684684 7.20537 0.0453526C5.60004 0.177385 4.03554 0.518847 2.59346 1.3247C1.1786 2.11689 0.897424 3.05478 1.55497 4.71657C2.03566 5.93218 3.0152 6.29186 4.1217 5.61348C5.08761 5.02161 6.11702 4.69836 7.20991 4.60275C9.67685 4.38877 11.2504 5.39495 11.6767 8.04925C11.7946 8.77316 11.6767 8.88242 10.9557 8.90973C9.86278 8.95526 8.76987 8.97348 7.67698 9.06909C6.312 9.18291 4.95157 9.36957 3.66821 9.87949C1.99487 10.5442 0.693378 11.5914 0.244431 13.4353C0.0585033 14.2001 -0.0367323 14.9878 0.0131507 15.7845C0.15373 17.9881 1.06975 19.7227 3.17845 20.5514C5.45946 21.4437 7.69059 21.1796 9.72673 19.7774C10.4523 19.2765 11.1098 18.671 11.8808 18.0427C12.035 20.0687 12.7107 20.2782 13.7899 20.5514C14.4928 20.7289 15.2184 20.6697 15.9077 20.4057C16.8736 20.0323 17.2319 19.5179 17.2319 18.457C17.2319 15.0151 17.2681 11.5731 17.2228 8.1312L17.2409 8.12664ZM7.76768 16.7543C6.64305 16.7452 6.00817 16.2853 5.72247 15.2655C5.40957 14.1501 5.72248 13.2486 6.66572 12.6931C7.01491 12.4883 7.4049 12.3107 7.79943 12.2242C8.87418 11.9966 9.96254 11.9283 11.0645 11.9374C11.4636 11.9374 11.6812 12.0239 11.7084 12.5019C11.8263 14.5052 9.7494 16.7725 7.77222 16.7543H7.76768Z" fill="var(--fill-0, white)"/>
</svg>
