<svg preserveAspectRatio="none" width="100%" height="100%" overflow="visible" style="display: block;" viewBox="0 0 5.58726 20.4186" fill="none" xmlns="http://www.w3.org/2000/svg">
<path id="Vector" d="M0.0230247 10.077C0.0230247 7.43178 0.0230247 4.78203 0.0230247 2.13683C0.0230247 1.03049 0.358607 0.547891 1.3608 0.220086C2.40835 -0.121377 3.4468 -0.0576427 4.4626 0.356666C5.20178 0.657153 5.58272 1.18528 5.58272 2.02301C5.56911 7.45455 5.56458 12.8861 5.58726 18.3131C5.58726 19.2874 4.99772 19.7654 4.27215 20.0887C3.22914 20.5531 2.14078 20.5258 1.09777 20.0158C0.363134 19.6562 -0.0132484 19.1144 0.000356106 18.2266C0.0457043 15.5131 0.0184854 12.795 0.0184854 10.0815L0.0230247 10.077Z" fill="var(--fill-0, white)"/>
</svg>
