<svg preserveAspectRatio="none" width="100%" height="100%" overflow="visible" style="display: block;" viewBox="0 0 98.8208 101.633" fill="none" xmlns="http://www.w3.org/2000/svg">
<path id="Vector" d="M98.8117 46.6902C98.8026 46.9998 98.7845 47.3094 98.7845 47.619C98.7845 62.1562 98.7845 76.698 98.7845 91.2352C98.7845 91.5448 98.8072 91.8544 98.8162 92.1594C98.4534 95.3282 96.8617 97.7822 94.3132 99.5806C87.647 104.293 78.074 100.555 76.8133 91.8134C76.7634 91.4765 76.7951 91.1259 76.7951 90.7845C76.7951 77.4993 76.8042 64.2141 76.7861 50.9289C76.7861 47.9377 76.4822 44.9783 75.6388 42.0873C74.3282 37.6119 72.0472 33.7328 68.764 30.4229C65.1135 26.7442 60.8054 24.2766 55.7808 23.1065C48.4571 21.3992 41.5777 22.5647 35.1746 26.4938C30.7985 29.18 27.4926 32.8906 25.198 37.4707C23.3659 41.1358 22.3818 45.0375 22.3864 49.1715C22.4 62.8346 22.4 76.5022 22.3864 90.1653C22.3864 92.9243 21.5973 95.442 19.797 97.5864C17.8062 99.963 15.2667 101.302 12.1876 101.579C6.61427 102.085 1.42644 98.3513 0.288199 92.6102C0.102272 91.6768 0.034246 90.7025 0.0297111 89.7464C0.0115719 76.4612 -0.0292371 63.176 0.0342504 49.8909C0.070529 41.8096 1.80735 34.0971 5.54404 26.8945C8.29214 21.5995 11.852 16.942 16.2598 12.9127C19.5748 9.88505 23.2253 7.35368 27.2114 5.31856C31.7553 3.00116 36.5622 1.45775 41.6004 0.642789C44.9925 0.0918951 48.4117 -0.108428 51.8355 0.0554738C55.876 0.246693 59.8531 0.906855 63.7394 2.08604C70.7638 4.21677 77.0264 7.71335 82.4863 12.6213C89.5471 18.968 94.3948 26.7397 97.0567 35.8636C98.0861 39.392 98.7618 42.9979 98.8208 46.6948L98.8117 46.6902Z" fill="var(--fill-0, white)"/>
</svg>
