<svg preserveAspectRatio="none" width="100%" height="100%" overflow="visible" style="display: block;" viewBox="0 0 5.72557 31.2531" fill="none" xmlns="http://www.w3.org/2000/svg">
<path id="Vector" d="M0.0184272 15.552C0.0184272 11.1448 0.0456461 6.74224 0.000297878 2.33509C-0.0133066 0.941925 0.435631 0.27721 2.0591 0.0723317C2.96153 -0.0460421 3.90023 -0.0642518 4.77999 0.372821C5.37405 0.668755 5.65976 1.11038 5.71417 1.73867C5.73685 2.01184 5.7187 2.28957 5.7187 2.56274C5.7187 11.2359 5.7187 19.9091 5.7187 28.5822C5.7187 30.326 5.1972 30.9634 3.52385 31.2047C2.77107 31.3139 2.01829 31.2411 1.30179 30.9588C0.376686 30.5946 0.0229664 30.0938 0.0229664 29.0785C0.0184316 25.0174 0.0229664 20.9562 0.0229664 16.8951C0.0229664 16.4489 0.0229664 15.9982 0.0229664 15.552H0.0184272Z" fill="var(--fill-0, white)"/>
</svg>
