<svg preserveAspectRatio="none" width="100%" height="100%" overflow="visible" style="display: block;" viewBox="0 0 21.5078 31.2184" fill="none" xmlns="http://www.w3.org/2000/svg">
<path id="Vector" d="M13.5968 17.5466C13.5968 21.3346 13.5696 25.118 13.615 28.906C13.6286 29.9395 13.3293 30.6452 11.9688 31.0367C10.9439 31.3326 9.94174 31.2689 8.96222 30.8318C8.26386 30.5177 7.90107 29.9896 7.89654 29.2201C7.89654 28.9788 7.89654 28.7375 7.89654 28.4962C7.89654 21.1297 7.89654 13.7632 7.89654 6.39674C7.89654 6.15544 7.8784 5.91414 7.89654 5.67284C7.94188 5.17658 7.72422 5.01723 7.23899 5.02178C5.55658 5.04455 3.87868 5.03088 2.19626 5.03088C0.813144 5.03088 0.0694348 4.30698 0.0150169 2.8956C-0.012192 2.17625 -0.0484617 1.45235 0.364207 0.79219C0.677109 0.291377 1.05349 0 1.68837 0C7.72421 0.0136585 13.7646 0.0182114 19.8004 0C20.4852 0 20.9069 0.300484 21.1654 0.878695C21.6234 1.90764 21.6098 2.95479 21.1972 3.98374C20.916 4.68487 20.4081 5.0491 19.6009 5.03544C17.9185 5.00357 16.2406 5.02177 14.5582 5.02633C13.6013 5.02633 13.5923 5.03544 13.5923 5.97333C13.5923 9.82958 13.5923 13.6858 13.5923 17.5375L13.5968 17.5466Z" fill="var(--fill-0, white)"/>
</svg>
