<svg preserveAspectRatio="none" width="100%" height="100%" overflow="visible" style="display: block;" viewBox="0 0 20.1166 31.2274" fill="none" xmlns="http://www.w3.org/2000/svg">
<path id="Vector" d="M20.1165 10.3889C20.121 9.3873 20.0167 8.39934 19.8852 7.41593C19.7038 6.08194 19.2775 4.81626 18.4885 3.69171C16.7199 1.16033 14.1441 0.176913 11.2327 0.0630918C8.22162 -0.055282 5.19692 0.0266747 2.18126 0.0403332C0.666631 0.0494389 0.00453482 0.741468 0 2.25756C0 6.73301 0 11.2039 0 15.6793C0 16.6081 0 17.5369 0 18.4657C0 22.0442 0 25.6227 0 29.2013C0 30.2712 0.385472 30.7538 1.38767 31.0953C1.75499 31.2182 2.1223 31.2273 2.49869 31.2273C5.10621 31.2273 7.70921 31.2182 10.3167 31.2273C11.455 31.2318 12.5705 31.077 13.6589 30.772C17.0328 29.8296 19.1641 27.7079 19.7899 24.1749C19.9668 23.1596 20.1029 22.1444 20.1029 21.1154C20.1119 17.5369 20.0983 13.9584 20.1119 10.3798L20.1165 10.3889ZM14.4026 21.5753C14.4026 21.9167 14.389 22.2673 14.3391 22.6042C13.9854 24.917 12.4526 26.2465 10.1127 26.2692C8.87919 26.2829 7.64119 26.2783 6.40772 26.2692C5.56878 26.2647 5.55517 26.2556 5.55517 25.4133C5.55063 22.1444 5.55517 18.8754 5.55517 15.6019C5.55517 12.3284 5.55517 9.13235 5.55517 5.89528C5.55517 5.00747 5.56875 5.00292 6.47118 4.99837C7.74093 4.99382 9.01069 4.98926 10.2804 4.99837C12.5433 5.01203 14.0897 6.4143 14.3482 8.66796C14.3844 8.973 14.4026 9.28714 14.4026 9.59218C14.4026 13.585 14.4026 17.5779 14.4026 21.5707V21.5753Z" fill="var(--fill-0, white)"/>
</svg>
