<svg preserveAspectRatio="none" width="100%" height="100%" overflow="visible" style="display: block;" viewBox="0 0 83.4982 60.5482" fill="none" xmlns="http://www.w3.org/2000/svg">
<path id="Vector" d="M76.7378 0.182114C80.0981 0.883251 83.0321 3.69235 83.4584 7.96292C83.6715 10.1255 83.0185 12.106 81.717 13.8543C79.3771 16.9912 77.0326 20.1281 74.6835 23.2605C72.8741 25.678 71.0557 28.091 69.2417 30.5086C69.0558 30.7544 68.8336 30.9775 68.7338 31.3554C70.126 32.1112 71.5318 32.8852 72.8741 33.7684C74.5112 34.8429 76.0394 36.063 77.5405 37.3151C77.9032 37.6156 77.9168 37.8523 77.6221 38.2484C75.1098 41.6266 73.0918 45.2871 71.4774 49.1752C69.9582 52.8357 68.8971 56.6237 68.2395 60.5482C67.8586 60.5482 67.8495 60.2068 67.7452 59.9973C65.496 55.5583 62.0767 52.3804 57.5147 50.4409C55.1248 49.4256 52.6171 48.9248 50.0232 48.9203C46.9032 48.9112 43.7787 48.9248 40.6588 48.9203C38.1737 48.9112 36.3053 47.7912 35.1308 45.624C33.9336 43.4204 33.988 41.1668 35.421 39.0952C36.9221 36.919 38.5546 34.8383 40.1373 32.7213C42.6042 29.4205 45.0802 26.1287 47.5472 22.8234C47.724 22.5866 47.9916 22.3954 48.0278 21.9265C47.656 21.9265 47.2932 21.9265 46.9349 21.9265C34.8633 21.9265 22.787 21.8855 10.7153 21.9447C5.58645 21.972 0.811288 17.8335 0.0947866 12.4702C-0.63532 6.9795 2.92451 1.58439 8.28467 0.318699C8.45246 0.277723 8.61571 0.227642 8.77897 0.182114C8.9649 0.027317 9.24152 0.200325 9.40931 0H76.307C76.4158 0.136585 76.6063 0.0728454 76.7333 0.177561L76.7378 0.182114Z" fill="var(--fill-0, white)"/>
</svg>
